PathFileType  4	(X/Y/Z) C:\Users\antoi\Documents\MyRepositories\mobilecap\ResultsAnalysis
DataRate	CameraRate	NumFrames	NumMarkers	Units	OrigDataRate	OrigDataStartFrame	OrigNumFrames
100.0	100.0	4	51	mm	100.0	35	136
Frame#	Time	r_knee			r_shank_antsup			r_ankle			r_calc			r_5meta			r_toe			L_knee			L_shank_antsup			L_ankle			L_calc			L_5meta			L_toe			r_sh2			r_sh3			r_sh4			L_sh2			L_sh3			r_thigh1			r_thigh2			r_thigh3			r_thigh4			r_thigh5			L_thigh1			L_thigh2			L_thigh3			L_thigh4			r.ASIS			r.PSIS			L.ASIS			L.PSIS			C7			R_Shoulder			L_Shoulder			R_Sternum			L_Sternum			R_humerus			R_elbow_med			R_elbow_lat			R_forearm			R_wrist_radius			R_wrist_ulna			L_humerus			L_elbow_med			L_elbow_lat			L_forearm			L_wrist_radius			L_wrist_ulna			R_HJC			L_HJC			R_HJC_reg			L_HJC_reg			
		X1	Y1	Z1	X2	Y2	Z2	X3	Y3	Z3	X4	Y4	Z4	X5	Y5	Z5	X6	Y6	Z6	X7	Y7	Z7	X8	Y8	Z8	X9	Y9	Z9	X10	Y10	Z10	X11	Y11	Z11	X12	Y12	Z12	X13	Y13	Z13	X14	Y14	Z14	X15	Y15	Z15	X16	Y16	Z16	X17	Y17	Z17	X18	Y18	Z18	X19	Y19	Z19	X20	Y20	Z20	X21	Y21	Z21	X22	Y22	Z22	X23	Y23	Z23	X24	Y24	Z24	X25	Y25	Z25	X26	Y26	Z26	X27	Y27	Z27	X28	Y28	Z28	X29	Y29	Z29	X30	Y30	Z30	X31	Y31	Z31	X32	Y32	Z32	X33	Y33	Z33	X34	Y34	Z34	X35	Y35	Z35	X36	Y36	Z36	X37	Y37	Z37	X38	Y38	Z38	X39	Y39	Z39	X40	Y40	Z40	X41	Y41	Z41	X42	Y42	Z42	X43	Y43	Z43	X44	Y44	Z44	X45	Y45	Z45	X46	Y46	Z46	X47	Y47	Z47	X48	Y48	Z48	X49	Y49	Z49	X50	Y50	Z50	X51	Y51	Z51	

35	0.34000000	259.39160	471.82012	-117.89494	293.65056	407.46848	-124.55379	216.17762	83.32634	-155.85098	160.42483	59.39584	-199.19482	325.71447	40.49503	-135.20500	368.45630	59.27003	-188.99842	375.06366	481.02200	-390.87699	359.91790	390.83448	-378.95805	112.37505	211.87770	-354.75749	51.55494	214.97232	-300.16562	151.81331	106.56527	-397.97382	209.00206	87.24444	-353.99254	273.22446	297.03337	-122.42237	222.58733	420.24100	-94.64368	193.11242	307.28418	-99.05352	306.41856	456.72168	-406.75075	218.60221	371.11288	-404.56945	297.03354	719.84576	-63.18058	302.93986	607.20056	-83.94256	238.76578	582.51796	-83.72634	182.60111	711.92145	-68.80283	187.19921	602.51224	-102.77592	322.78042	750.97542	-426.65016	378.98401	624.19654	-411.64842	220.64922	707.20823	-424.20722	273.53093	585.95670	-385.07919	325.97910	928.05712	-133.26078	112.93865	960.07397	-203.32981	320.82481	920.96144	-355.51292	114.15602	954.68822	-284.69572	215.69329	1399.53743	-230.58287	260.69439	1362.40544	-89.78106	259.98202	1373.41548	-369.76310	337.45429	1328.34268	-207.31867	336.26448	1330.07203	-248.92881	285.60552	1250.01015	-32.04898	206.75587	1040.14096	-31.87292	249.72776	1050.87057	16.66380	322.16955	989.55324	18.00427	383.95534	858.00542	4.35437	357.69556	849.34117	33.64440	261.30498	1274.22201	-444.74570	199.60624	1055.06563	-437.32433	229.33331	1075.80871	-492.84235	295.99640	989.98716	-505.72707	340.07974	867.84014	-497.75466	311.92552	863.36122	-527.45173	241.36614	842.47505	-135.02558	237.04574	837.44288	-342.41086	249.12508	863.64457	-160.58267	251.31226	853.94706	-307.04546	
36	0.35000000	262.23059	471.95618	-118.11585	295.74343	407.38501	-124.91860	216.52074	83.84703	-156.47641	160.71563	59.78971	-199.63092	325.75651	40.59612	-135.26259	368.68477	58.84581	-189.14975	395.01437	485.20159	-388.56644	384.37075	394.15504	-376.63490	146.36554	201.83354	-353.88606	84.74474	201.28736	-299.92064	192.74437	99.29462	-396.38358	250.53263	83.93656	-351.78442	274.72477	297.08707	-122.74810	224.83459	420.59558	-95.15971	194.56356	307.87616	-99.68661	327.75654	457.07456	-405.54315	244.44077	366.98483	-403.92433	304.22512	719.42953	-62.88200	308.52793	606.74790	-84.10383	243.93977	583.07666	-84.01593	189.88098	713.29315	-68.66305	192.54984	603.95739	-103.21626	336.28447	753.83669	-426.32054	395.15221	628.22531	-410.58168	235.15327	707.70799	-424.14527	290.67302	588.04635	-384.08061	335.58788	928.23495	-131.59869	123.11254	960.52785	-204.16901	331.99648	921.95619	-353.60340	124.88042	955.33600	-285.59538	227.51515	1400.11630	-229.83359	273.14838	1363.06426	-89.32047	271.17692	1373.79231	-369.23540	349.11280	1328.70437	-207.05288	347.80285	1330.38344	-248.62616	300.12042	1251.31091	-31.84338	224.44313	1040.19131	-29.24844	268.41390	1051.81252	18.28846	342.27112	992.07029	17.73258	406.99577	862.09959	2.30474	381.33374	852.73774	32.15109	271.00082	1274.66425	-444.40091	207.42817	1056.12571	-436.56360	236.52084	1076.57978	-492.38011	302.40718	990.32248	-506.29590	345.63110	867.94323	-498.97794	317.05359	863.57470	-528.24018	250.62082	842.72743	-134.61598	248.51840	838.29824	-342.04410	258.91948	864.17061	-159.55897	262.09057	854.84371	-305.82982	
37	0.36000000	265.01757	472.10269	-118.40223	297.82369	407.31649	-125.40466	216.88182	84.38837	-157.14590	161.04633	60.20233	-200.08321	325.78199	40.72179	-135.33013	368.89595	58.45568	-189.31694	414.09444	488.96596	-386.17956	408.35241	397.24308	-374.26963	181.10408	191.38224	-353.13991	119.00659	186.92059	-299.73565	234.53474	92.22192	-394.91031	292.78853	80.99838	-349.73258	276.22309	297.14916	-123.17541	227.10174	420.95830	-95.71075	196.03825	308.48046	-100.33326	348.62394	456.76404	-404.54939	270.36312	362.19367	-403.49583	311.22095	718.96458	-62.57147	314.05424	606.24845	-84.33449	249.07304	583.59932	-84.37950	197.14839	714.55699	-68.57771	197.92656	605.29835	-103.73442	349.72774	756.39443	-425.89450	410.91769	631.89751	-409.36435	249.57425	708.16894	-424.15223	307.34290	589.99244	-383.14857	345.16240	928.22178	-129.93001	133.22396	960.71553	-205.19201	343.22568	922.65440	-351.74595	135.58537	955.59485	-286.67777	239.31993	1400.49198	-229.15066	285.52068	1363.53688	-88.90849	282.31530	1373.95168	-368.75985	360.76641	1328.88178	-206.81047	359.32473	1330.51181	-248.33400	314.52586	1252.46161	-31.72090	242.22159	1040.08408	-26.87668	286.99442	1052.70233	19.74517	362.23774	994.54681	17.35630	429.79914	866.22990	0.22356	404.73884	856.18483	30.55396	280.67942	1274.90268	-444.07406	215.32361	1056.93687	-435.88938	243.79373	1077.17486	-491.97260	308.94010	990.52043	-506.88515	351.34449	867.94398	-500.19219	322.38164	863.67857	-529.04389	259.84543	842.76971	-134.24933	260.08266	838.81870	-341.69690	268.66284	864.56758	-158.48580	272.89273	855.38781	-304.58799	
38	0.37000000	267.75104	472.27314	-118.74164	299.89587	407.27857	-125.96494	217.26198	84.94501	-157.83837	161.39233	60.62494	-200.55747	325.80611	40.85896	-135.40947	369.10070	58.12922	-189.47285	432.29104	492.28931	-383.76085	431.74940	400.08056	-371.89989	216.60390	180.73595	-352.54899	154.36795	172.11600	-299.68692	277.12346	85.55436	-393.56131	335.57444	78.54504	-347.81128	277.69654	297.22545	-123.68064	229.35701	421.34123	-96.28085	197.51826	309.10081	-100.98996	368.98467	455.79183	-403.72322	296.36730	356.81709	-403.23158	318.09402	718.44541	-62.30759	319.50359	605.71206	-84.63809	254.15129	584.09692	-84.79113	204.39248	715.73151	-68.55464	203.30600	606.55249	-104.28920	363.12052	758.60989	-425.33632	426.32564	635.17874	-407.95922	263.90020	708.56260	-424.19814	323.53742	591.67639	-382.26239	354.74620	928.04450	-128.31726	143.31640	960.67152	-206.32061	354.49396	923.07661	-350.02266	146.29338	955.52825	-287.86276	251.11192	1400.67579	-228.52900	297.81659	1363.83245	-88.54054	293.40728	1373.89956	-368.32961	372.41036	1328.87406	-206.58635	370.82694	1330.45521	-248.05463	328.80159	1253.47289	-31.66611	260.09847	1039.83025	-24.78227	305.45882	1053.53549	21.02499	382.04540	996.98392	16.86791	452.33632	870.38127	-1.89089	427.90052	859.67454	28.86058	290.34612	1274.93718	-443.75354	223.31797	1057.50866	-435.27779	251.18380	1077.59375	-491.60040	315.61649	990.57735	-507.47618	357.23523	867.80392	-501.39701	327.91725	863.66703	-529.85963	269.10894	842.62875	-133.93978	271.69370	839.04370	-341.38124	278.39687	864.81640	-157.42983	283.72361	855.61140	-303.40513	
